<svg xmlns="http://www.w3.org/2000/svg" viewBox="0 0 680 240" width="680" height="240" font-family="ui-monospace, SFMono-Regular, 'SF Mono', Menlo, Consolas, 'Liberation Mono', monospace">
  <g id="card" opacity="0">
    <animate attributeName="opacity" from="0" to="1" begin="0s" dur="0.5s" fill="freeze"/>

    <rect x="0.5" y="0.5" width="679" height="239" rx="10" fill="#0d1117" stroke="#30363d" stroke-width="1"/>

    <rect x="1" y="1" width="678" height="30" rx="9" fill="#161b22"/>
    <rect x="1" y="20" width="678" height="11" fill="#161b22"/>
    <line x1="1" y1="31" x2="679" y2="31" stroke="#30363d" stroke-width="1"/>

    <circle cx="18" cy="16" r="6" fill="#ff5f56"/>
    <circle cx="36" cy="16" r="6" fill="#ffbd2e"/>
    <circle cx="54" cy="16" r="6" fill="#27c93f"/>
    <text x="340" y="20" text-anchor="middle" font-size="12" fill="#8b949e">adrian@dev — zsh</text>

    <clipPath id="matrixClip"><rect x="34" y="62" width="130" height="128"/></clipPath>
    <g clip-path="url(#matrixClip)" font-family="ui-monospace, SFMono-Regular, 'SF Mono', Menlo, Consolas, 'Liberation Mono', monospace">
      <text font-size="11" opacity="1"><animate attributeName="opacity" calcMode="discrete" values="1;0" keyTimes="0.00000;0.06250" begin="0s" dur="2.40s" repeatCount="indefinite"/><tspan x="36.0" y="76.0" fill="#328f42">&lt;</tspan><tspan x="36.0" y="91.0" fill="#39a449">F</tspan><tspan x="36.0" y="105.9" fill="#c8ffd2">M</tspan><tspan x="49.6" y="76.0" fill="#266534">&gt;</tspan><tspan x="49.6" y="91.0" fill="#2c7a3b">B</tspan><tspan x="49.6" y="105.9" fill="#328f42">&lt;</tspan><tspan x="49.6" y="120.9" fill="#39a449">&gt;</tspan><tspan x="49.6" y="135.8" fill="#c8ffd2">X</tspan><tspan x="76.9" y="76.0" fill="#2c7a3b">B</tspan><tspan x="76.9" y="91.0" fill="#328f42">M</tspan><tspan x="76.9" y="105.9" fill="#39a449">A</tspan><tspan x="76.9" y="120.9" fill="#c8ffd2">/</tspan><tspan x="111.0" y="76.0" fill="#20502c">G</tspan><tspan x="111.0" y="91.0" fill="#266534">Q</tspan><tspan x="111.0" y="105.9" fill="#2c7a3b">Y</tspan><tspan x="111.0" y="120.9" fill="#328f42">H</tspan><tspan x="111.0" y="135.8" fill="#39a449">-</tspan><tspan x="111.0" y="150.8" fill="#c8ffd2">F</tspan><tspan x="117.8" y="76.0" fill="#20502c">&lt;</tspan><tspan x="117.8" y="91.0" fill="#266534">R</tspan><tspan x="117.8" y="105.9" fill="#2c7a3b">/</tspan><tspan x="117.8" y="120.9" fill="#328f42">J</tspan><tspan x="117.8" y="135.8" fill="#39a449">E</tspan><tspan x="117.8" y="150.8" fill="#c8ffd2">&gt;</tspan><tspan x="145.1" y="76.0" fill="#20502c">&lt;</tspan><tspan x="145.1" y="91.0" fill="#266534">K</tspan><tspan x="145.1" y="105.9" fill="#2c7a3b">V</tspan><tspan x="145.1" y="120.9" fill="#328f42">E</tspan><tspan x="145.1" y="135.8" fill="#39a449">/</tspan><tspan x="145.1" y="150.8" fill="#c8ffd2">C</tspan></text>
      <text font-size="11" opacity="0"><animate attributeName="opacity" calcMode="discrete" values="0;1;0" keyTimes="0.00000;0.06250;0.12500" begin="0s" dur="2.40s" repeatCount="indefinite"/><tspan x="36.0" y="76.0" fill="#2c7a3b">&lt;</tspan><tspan x="36.0" y="91.0" fill="#328f42">B</tspan><tspan x="36.0" y="105.9" fill="#39a449">L</tspan><tspan x="36.0" y="120.9" fill="#c8ffd2">&amp;</tspan><tspan x="49.6" y="76.0" fill="#20502c">-</tspan><tspan x="49.6" y="91.0" fill="#266534">Z</tspan><tspan x="49.6" y="105.9" fill="#2c7a3b">S</tspan><tspan x="49.6" y="120.9" fill="#328f42">$</tspan><tspan x="49.6" y="135.8" fill="#39a449">&gt;</tspan><tspan x="49.6" y="150.8" fill="#c8ffd2">$</tspan><tspan x="76.9" y="76.0" fill="#266534">V</tspan><tspan x="76.9" y="91.0" fill="#2c7a3b">R</tspan><tspan x="76.9" y="105.9" fill="#328f42">N</tspan><tspan x="76.9" y="120.9" fill="#39a449">J</tspan><tspan x="76.9" y="135.8" fill="#c8ffd2">N</tspan><tspan x="111.0" y="76.0" fill="#1a3b25">D</tspan><tspan x="111.0" y="91.0" fill="#20502c">&lt;</tspan><tspan x="111.0" y="105.9" fill="#266534">R</tspan><tspan x="111.0" y="120.9" fill="#2c7a3b">+</tspan><tspan x="111.0" y="135.8" fill="#328f42">&amp;</tspan><tspan x="111.0" y="150.8" fill="#39a449">T</tspan><tspan x="111.0" y="165.8" fill="#c8ffd2">#</tspan><tspan x="117.8" y="76.0" fill="#1a3b25">Q</tspan><tspan x="117.8" y="91.0" fill="#20502c">C</tspan><tspan x="117.8" y="105.9" fill="#266534">F</tspan><tspan x="117.8" y="120.9" fill="#2c7a3b">*</tspan><tspan x="117.8" y="135.8" fill="#328f42">Y</tspan><tspan x="117.8" y="150.8" fill="#39a449">I</tspan><tspan x="117.8" y="165.8" fill="#c8ffd2">T</tspan><tspan x="131.5" y="76.0" fill="#c8ffd2">H</tspan><tspan x="145.1" y="76.0" fill="#1a3b25">&amp;</tspan><tspan x="145.1" y="91.0" fill="#20502c">Y</tspan><tspan x="145.1" y="105.9" fill="#266534">A</tspan><tspan x="145.1" y="120.9" fill="#2c7a3b">C</tspan><tspan x="145.1" y="135.8" fill="#328f42">/</tspan><tspan x="145.1" y="150.8" fill="#39a449">&lt;</tspan><tspan x="145.1" y="165.8" fill="#c8ffd2">S</tspan></text>
      <text font-size="11" opacity="0"><animate attributeName="opacity" calcMode="discrete" values="0;1;0" keyTimes="0.00000;0.12500;0.18750" begin="0s" dur="2.40s" repeatCount="indefinite"/><tspan x="36.0" y="76.0" fill="#266534">T</tspan><tspan x="36.0" y="91.0" fill="#2c7a3b">U</tspan><tspan x="36.0" y="105.9" fill="#328f42">&amp;</tspan><tspan x="36.0" y="120.9" fill="#39a449">&gt;</tspan><tspan x="36.0" y="135.8" fill="#c8ffd2">$</tspan><tspan x="49.6" y="76.0" fill="#1a3b25">C</tspan><tspan x="49.6" y="91.0" fill="#20502c">D</tspan><tspan x="49.6" y="105.9" fill="#266534">P</tspan><tspan x="49.6" y="120.9" fill="#2c7a3b">%</tspan><tspan x="49.6" y="135.8" fill="#328f42">C</tspan><tspan x="49.6" y="150.8" fill="#39a449">B</tspan><tspan x="49.6" y="165.8" fill="#c8ffd2">R</tspan><tspan x="76.9" y="76.0" fill="#20502c">&lt;</tspan><tspan x="76.9" y="91.0" fill="#266534">#</tspan><tspan x="76.9" y="105.9" fill="#2c7a3b">Q</tspan><tspan x="76.9" y="120.9" fill="#328f42">W</tspan><tspan x="76.9" y="135.8" fill="#39a449">U</tspan><tspan x="76.9" y="150.8" fill="#c8ffd2">1</tspan><tspan x="90.6" y="76.0" fill="#c8ffd2">$</tspan><tspan x="111.0" y="76.0" fill="#13261e">U</tspan><tspan x="111.0" y="91.0" fill="#1a3b25">I</tspan><tspan x="111.0" y="105.9" fill="#20502c">F</tspan><tspan x="111.0" y="120.9" fill="#266534">&amp;</tspan><tspan x="111.0" y="135.8" fill="#2c7a3b">B</tspan><tspan x="111.0" y="150.8" fill="#328f42">L</tspan><tspan x="111.0" y="165.8" fill="#39a449">Q</tspan><tspan x="111.0" y="180.7" fill="#c8ffd2">G</tspan><tspan x="117.8" y="76.0" fill="#13261e">N</tspan><tspan x="117.8" y="91.0" fill="#1a3b25">X</tspan><tspan x="117.8" y="105.9" fill="#20502c">X</tspan><tspan x="117.8" y="120.9" fill="#266534">&amp;</tspan><tspan x="117.8" y="135.8" fill="#2c7a3b">D</tspan><tspan x="117.8" y="150.8" fill="#328f42">I</tspan><tspan x="117.8" y="165.8" fill="#39a449">#</tspan><tspan x="117.8" y="180.7" fill="#c8ffd2">X</tspan><tspan x="131.5" y="76.0" fill="#39a449">/</tspan><tspan x="131.5" y="91.0" fill="#c8ffd2">P</tspan><tspan x="145.1" y="76.0" fill="#13261e">G</tspan><tspan x="145.1" y="91.0" fill="#1a3b25">Z</tspan><tspan x="145.1" y="105.9" fill="#20502c">/</tspan><tspan x="145.1" y="120.9" fill="#266534">P</tspan><tspan x="145.1" y="135.8" fill="#2c7a3b">Y</tspan><tspan x="145.1" y="150.8" fill="#328f42">U</tspan><tspan x="145.1" y="165.8" fill="#39a449">W</tspan><tspan x="145.1" y="180.7" fill="#c8ffd2">M</tspan></text>
      <text font-size="11" opacity="0"><animate attributeName="opacity" calcMode="discrete" values="0;1;0" keyTimes="0.00000;0.18750;0.25000" begin="0s" dur="2.40s" repeatCount="indefinite"/><tspan x="36.0" y="76.0" fill="#20502c">H</tspan><tspan x="36.0" y="91.0" fill="#266534">D</tspan><tspan x="36.0" y="105.9" fill="#2c7a3b">J</tspan><tspan x="36.0" y="120.9" fill="#328f42">H</tspan><tspan x="36.0" y="135.8" fill="#39a449">M</tspan><tspan x="36.0" y="150.8" fill="#c8ffd2">M</tspan><tspan x="49.6" y="76.0" fill="#13261e">0</tspan><tspan x="49.6" y="91.0" fill="#1a3b25">&amp;</tspan><tspan x="49.6" y="105.9" fill="#20502c">&gt;</tspan><tspan x="49.6" y="120.9" fill="#266534">J</tspan><tspan x="49.6" y="135.8" fill="#2c7a3b">O</tspan><tspan x="49.6" y="150.8" fill="#328f42">Q</tspan><tspan x="49.6" y="165.8" fill="#39a449">0</tspan><tspan x="49.6" y="180.7" fill="#c8ffd2">H</tspan><tspan x="76.9" y="76.0" fill="#1a3b25">Y</tspan><tspan x="76.9" y="91.0" fill="#20502c">-</tspan><tspan x="76.9" y="105.9" fill="#266534">V</tspan><tspan x="76.9" y="120.9" fill="#2c7a3b">&lt;</tspan><tspan x="76.9" y="135.8" fill="#328f42">S</tspan><tspan x="76.9" y="150.8" fill="#39a449">G</tspan><tspan x="76.9" y="165.8" fill="#c8ffd2">*</tspan><tspan x="90.6" y="76.0" fill="#39a449">B</tspan><tspan x="90.6" y="91.0" fill="#c8ffd2">$</tspan><tspan x="131.5" y="76.0" fill="#328f42">/</tspan><tspan x="131.5" y="91.0" fill="#39a449">X</tspan><tspan x="131.5" y="105.9" fill="#c8ffd2">X</tspan></text>
      <text font-size="11" opacity="0"><animate attributeName="opacity" calcMode="discrete" values="0;1;0" keyTimes="0.00000;0.25000;0.31250" begin="0s" dur="2.40s" repeatCount="indefinite"/><tspan x="36.0" y="76.0" fill="#1a3b25">X</tspan><tspan x="36.0" y="91.0" fill="#20502c">X</tspan><tspan x="36.0" y="105.9" fill="#266534">E</tspan><tspan x="36.0" y="120.9" fill="#2c7a3b">%</tspan><tspan x="36.0" y="135.8" fill="#328f42">X</tspan><tspan x="36.0" y="150.8" fill="#39a449">B</tspan><tspan x="36.0" y="165.8" fill="#c8ffd2">K</tspan><tspan x="42.8" y="76.0" fill="#c8ffd2">C</tspan><tspan x="76.9" y="76.0" fill="#13261e">L</tspan><tspan x="76.9" y="91.0" fill="#1a3b25">#</tspan><tspan x="76.9" y="105.9" fill="#20502c">I</tspan><tspan x="76.9" y="120.9" fill="#266534">F</tspan><tspan x="76.9" y="135.8" fill="#2c7a3b">T</tspan><tspan x="76.9" y="150.8" fill="#328f42">B</tspan><tspan x="76.9" y="165.8" fill="#39a449">E</tspan><tspan x="76.9" y="180.7" fill="#c8ffd2">0</tspan><tspan x="90.6" y="76.0" fill="#328f42">&lt;</tspan><tspan x="90.6" y="91.0" fill="#39a449">H</tspan><tspan x="90.6" y="105.9" fill="#c8ffd2">-</tspan><tspan x="131.5" y="76.0" fill="#2c7a3b">E</tspan><tspan x="131.5" y="91.0" fill="#328f42">V</tspan><tspan x="131.5" y="105.9" fill="#39a449">1</tspan><tspan x="131.5" y="120.9" fill="#c8ffd2">C</tspan></text>
      <text font-size="11" opacity="0"><animate attributeName="opacity" calcMode="discrete" values="0;1;0" keyTimes="0.00000;0.31250;0.37500" begin="0s" dur="2.40s" repeatCount="indefinite"/><tspan x="36.0" y="76.0" fill="#13261e">L</tspan><tspan x="36.0" y="91.0" fill="#1a3b25">W</tspan><tspan x="36.0" y="105.9" fill="#20502c">H</tspan><tspan x="36.0" y="120.9" fill="#266534">O</tspan><tspan x="36.0" y="135.8" fill="#2c7a3b">U</tspan><tspan x="36.0" y="150.8" fill="#328f42">V</tspan><tspan x="36.0" y="165.8" fill="#39a449">%</tspan><tspan x="36.0" y="180.7" fill="#c8ffd2">F</tspan><tspan x="42.8" y="76.0" fill="#39a449">F</tspan><tspan x="42.8" y="91.0" fill="#c8ffd2">&amp;</tspan><tspan x="70.1" y="76.0" fill="#c8ffd2">$</tspan><tspan x="90.6" y="76.0" fill="#2c7a3b">%</tspan><tspan x="90.6" y="91.0" fill="#328f42">%</tspan><tspan x="90.6" y="105.9" fill="#39a449">R</tspan><tspan x="90.6" y="120.9" fill="#c8ffd2">D</tspan><tspan x="131.5" y="76.0" fill="#266534">H</tspan><tspan x="131.5" y="91.0" fill="#2c7a3b">E</tspan><tspan x="131.5" y="105.9" fill="#328f42">T</tspan><tspan x="131.5" y="120.9" fill="#39a449">O</tspan><tspan x="131.5" y="135.8" fill="#c8ffd2">%</tspan></text>
      <text font-size="11" opacity="0"><animate attributeName="opacity" calcMode="discrete" values="0;1;0" keyTimes="0.00000;0.37500;0.43750" begin="0s" dur="2.40s" repeatCount="indefinite"/><tspan x="42.8" y="76.0" fill="#328f42">I</tspan><tspan x="42.8" y="91.0" fill="#39a449">+</tspan><tspan x="42.8" y="105.9" fill="#c8ffd2">1</tspan><tspan x="63.3" y="76.0" fill="#c8ffd2">L</tspan><tspan x="70.1" y="76.0" fill="#39a449">+</tspan><tspan x="70.1" y="91.0" fill="#c8ffd2">V</tspan><tspan x="90.6" y="76.0" fill="#266534">H</tspan><tspan x="90.6" y="91.0" fill="#2c7a3b">-</tspan><tspan x="90.6" y="105.9" fill="#328f42">1</tspan><tspan x="90.6" y="120.9" fill="#39a449">+</tspan><tspan x="90.6" y="135.8" fill="#c8ffd2">R</tspan><tspan x="104.2" y="76.0" fill="#c8ffd2">D</tspan><tspan x="124.7" y="76.0" fill="#c8ffd2">O</tspan><tspan x="131.5" y="76.0" fill="#20502c">+</tspan><tspan x="131.5" y="91.0" fill="#266534">V</tspan><tspan x="131.5" y="105.9" fill="#2c7a3b">I</tspan><tspan x="131.5" y="120.9" fill="#328f42">U</tspan><tspan x="131.5" y="135.8" fill="#39a449">M</tspan><tspan x="131.5" y="150.8" fill="#c8ffd2">-</tspan><tspan x="138.3" y="76.0" fill="#c8ffd2">-</tspan></text>
      <text font-size="11" opacity="0"><animate attributeName="opacity" calcMode="discrete" values="0;1;0" keyTimes="0.00000;0.43750;0.50000" begin="0s" dur="2.40s" repeatCount="indefinite"/><tspan x="42.8" y="76.0" fill="#2c7a3b">*</tspan><tspan x="42.8" y="91.0" fill="#328f42">T</tspan><tspan x="42.8" y="105.9" fill="#39a449">M</tspan><tspan x="42.8" y="120.9" fill="#c8ffd2">K</tspan><tspan x="56.5" y="76.0" fill="#c8ffd2">N</tspan><tspan x="63.3" y="76.0" fill="#39a449">X</tspan><tspan x="63.3" y="91.0" fill="#c8ffd2">M</tspan><tspan x="70.1" y="76.0" fill="#328f42">K</tspan><tspan x="70.1" y="91.0" fill="#39a449">+</tspan><tspan x="70.1" y="105.9" fill="#c8ffd2">&amp;</tspan><tspan x="83.7" y="76.0" fill="#c8ffd2">U</tspan><tspan x="90.6" y="76.0" fill="#20502c">1</tspan><tspan x="90.6" y="91.0" fill="#266534">1</tspan><tspan x="90.6" y="105.9" fill="#2c7a3b">P</tspan><tspan x="90.6" y="120.9" fill="#328f42">%</tspan><tspan x="90.6" y="135.8" fill="#39a449">O</tspan><tspan x="90.6" y="150.8" fill="#c8ffd2">K</tspan><tspan x="97.4" y="76.0" fill="#c8ffd2">U</tspan><tspan x="104.2" y="76.0" fill="#39a449">#</tspan><tspan x="104.2" y="91.0" fill="#c8ffd2">U</tspan><tspan x="124.7" y="76.0" fill="#39a449">V</tspan><tspan x="124.7" y="91.0" fill="#c8ffd2">D</tspan><tspan x="131.5" y="76.0" fill="#1a3b25">M</tspan><tspan x="131.5" y="91.0" fill="#20502c">E</tspan><tspan x="131.5" y="105.9" fill="#266534">M</tspan><tspan x="131.5" y="120.9" fill="#2c7a3b">%</tspan><tspan x="131.5" y="135.8" fill="#328f42">K</tspan><tspan x="131.5" y="150.8" fill="#39a449">T</tspan><tspan x="131.5" y="165.8" fill="#c8ffd2">L</tspan><tspan x="138.3" y="76.0" fill="#39a449">%</tspan><tspan x="138.3" y="91.0" fill="#c8ffd2">0</tspan><tspan x="151.9" y="76.0" fill="#c8ffd2">%</tspan></text>
      <text font-size="11" opacity="0"><animate attributeName="opacity" calcMode="discrete" values="0;1;0" keyTimes="0.00000;0.50000;0.56250" begin="0s" dur="2.40s" repeatCount="indefinite"/><tspan x="42.8" y="76.0" fill="#266534">U</tspan><tspan x="42.8" y="91.0" fill="#2c7a3b">D</tspan><tspan x="42.8" y="105.9" fill="#328f42">F</tspan><tspan x="42.8" y="120.9" fill="#39a449">W</tspan><tspan x="42.8" y="135.8" fill="#c8ffd2">K</tspan><tspan x="56.5" y="76.0" fill="#39a449">%</tspan><tspan x="56.5" y="91.0" fill="#c8ffd2">J</tspan><tspan x="63.3" y="76.0" fill="#328f42">Z</tspan><tspan x="63.3" y="91.0" fill="#39a449">T</tspan><tspan x="63.3" y="105.9" fill="#c8ffd2">D</tspan><tspan x="70.1" y="76.0" fill="#2c7a3b">X</tspan><tspan x="70.1" y="91.0" fill="#328f42">$</tspan><tspan x="70.1" y="105.9" fill="#39a449">X</tspan><tspan x="70.1" y="120.9" fill="#c8ffd2">D</tspan><tspan x="83.7" y="76.0" fill="#39a449">I</tspan><tspan x="83.7" y="91.0" fill="#c8ffd2">I</tspan><tspan x="90.6" y="76.0" fill="#1a3b25">G</tspan><tspan x="90.6" y="91.0" fill="#20502c">1</tspan><tspan x="90.6" y="105.9" fill="#266534">H</tspan><tspan x="90.6" y="120.9" fill="#2c7a3b">&gt;</tspan><tspan x="90.6" y="135.8" fill="#328f42">$</tspan><tspan x="90.6" y="150.8" fill="#39a449">H</tspan><tspan x="90.6" y="165.8" fill="#c8ffd2">%</tspan><tspan x="97.4" y="76.0" fill="#39a449">U</tspan><tspan x="97.4" y="91.0" fill="#c8ffd2">H</tspan><tspan x="104.2" y="76.0" fill="#328f42">/</tspan><tspan x="104.2" y="91.0" fill="#39a449">/</tspan><tspan x="104.2" y="105.9" fill="#c8ffd2">G</tspan><tspan x="124.7" y="76.0" fill="#328f42">1</tspan><tspan x="124.7" y="91.0" fill="#39a449">0</tspan><tspan x="124.7" y="105.9" fill="#c8ffd2">E</tspan><tspan x="131.5" y="76.0" fill="#13261e">+</tspan><tspan x="131.5" y="91.0" fill="#1a3b25">G</tspan><tspan x="131.5" y="105.9" fill="#20502c">Z</tspan><tspan x="131.5" y="120.9" fill="#266534">K</tspan><tspan x="131.5" y="135.8" fill="#2c7a3b">L</tspan><tspan x="131.5" y="150.8" fill="#328f42">1</tspan><tspan x="131.5" y="165.8" fill="#39a449">O</tspan><tspan x="131.5" y="180.7" fill="#c8ffd2">L</tspan><tspan x="138.3" y="76.0" fill="#328f42">Q</tspan><tspan x="138.3" y="91.0" fill="#39a449">*</tspan><tspan x="138.3" y="105.9" fill="#c8ffd2">N</tspan><tspan x="151.9" y="76.0" fill="#39a449">&gt;</tspan><tspan x="151.9" y="91.0" fill="#c8ffd2">S</tspan></text>
      <text font-size="11" opacity="0"><animate attributeName="opacity" calcMode="discrete" values="0;1;0" keyTimes="0.00000;0.56250;0.62500" begin="0s" dur="2.40s" repeatCount="indefinite"/><tspan x="42.8" y="76.0" fill="#20502c">O</tspan><tspan x="42.8" y="91.0" fill="#266534">-</tspan><tspan x="42.8" y="105.9" fill="#2c7a3b">Y</tspan><tspan x="42.8" y="120.9" fill="#328f42">G</tspan><tspan x="42.8" y="135.8" fill="#39a449">B</tspan><tspan x="42.8" y="150.8" fill="#c8ffd2">U</tspan><tspan x="56.5" y="76.0" fill="#328f42">$</tspan><tspan x="56.5" y="91.0" fill="#39a449">&gt;</tspan><tspan x="56.5" y="105.9" fill="#c8ffd2">+</tspan><tspan x="63.3" y="76.0" fill="#2c7a3b">Y</tspan><tspan x="63.3" y="91.0" fill="#328f42">*</tspan><tspan x="63.3" y="105.9" fill="#39a449">G</tspan><tspan x="63.3" y="120.9" fill="#c8ffd2">-</tspan><tspan x="70.1" y="76.0" fill="#266534">H</tspan><tspan x="70.1" y="91.0" fill="#2c7a3b">+</tspan><tspan x="70.1" y="105.9" fill="#328f42">*</tspan><tspan x="70.1" y="120.9" fill="#39a449">1</tspan><tspan x="70.1" y="135.8" fill="#c8ffd2">#</tspan><tspan x="83.7" y="76.0" fill="#328f42">J</tspan><tspan x="83.7" y="91.0" fill="#39a449">0</tspan><tspan x="83.7" y="105.9" fill="#c8ffd2">H</tspan><tspan x="90.6" y="76.0" fill="#13261e">J</tspan><tspan x="90.6" y="91.0" fill="#1a3b25">H</tspan><tspan x="90.6" y="105.9" fill="#20502c">%</tspan><tspan x="90.6" y="120.9" fill="#266534">F</tspan><tspan x="90.6" y="135.8" fill="#2c7a3b">/</tspan><tspan x="90.6" y="150.8" fill="#328f42">B</tspan><tspan x="90.6" y="165.8" fill="#39a449">S</tspan><tspan x="90.6" y="180.7" fill="#c8ffd2">+</tspan><tspan x="97.4" y="76.0" fill="#328f42">+</tspan><tspan x="97.4" y="91.0" fill="#39a449">/</tspan><tspan x="97.4" y="105.9" fill="#c8ffd2">%</tspan><tspan x="104.2" y="76.0" fill="#2c7a3b">E</tspan><tspan x="104.2" y="91.0" fill="#328f42">/</tspan><tspan x="104.2" y="105.9" fill="#39a449">B</tspan><tspan x="104.2" y="120.9" fill="#c8ffd2">N</tspan><tspan x="124.7" y="76.0" fill="#2c7a3b">K</tspan><tspan x="124.7" y="91.0" fill="#328f42">P</tspan><tspan x="124.7" y="105.9" fill="#39a449">A</tspan><tspan x="124.7" y="120.9" fill="#c8ffd2">E</tspan><tspan x="138.3" y="76.0" fill="#2c7a3b">*</tspan><tspan x="138.3" y="91.0" fill="#328f42">#</tspan><tspan x="138.3" y="105.9" fill="#39a449">/</tspan><tspan x="138.3" y="120.9" fill="#c8ffd2">1</tspan><tspan x="151.9" y="76.0" fill="#328f42">C</tspan><tspan x="151.9" y="91.0" fill="#39a449">#</tspan><tspan x="151.9" y="105.9" fill="#c8ffd2">S</tspan></text>
      <text font-size="11" opacity="0"><animate attributeName="opacity" calcMode="discrete" values="0;1;0" keyTimes="0.00000;0.62500;0.68750" begin="0s" dur="2.40s" repeatCount="indefinite"/><tspan x="42.8" y="76.0" fill="#1a3b25">*</tspan><tspan x="42.8" y="91.0" fill="#20502c">*</tspan><tspan x="42.8" y="105.9" fill="#266534">K</tspan><tspan x="42.8" y="120.9" fill="#2c7a3b">P</tspan><tspan x="42.8" y="135.8" fill="#328f42">#</tspan><tspan x="42.8" y="150.8" fill="#39a449">*</tspan><tspan x="42.8" y="165.8" fill="#c8ffd2">-</tspan><tspan x="56.5" y="76.0" fill="#2c7a3b">%</tspan><tspan x="56.5" y="91.0" fill="#328f42">*</tspan><tspan x="56.5" y="105.9" fill="#39a449">N</tspan><tspan x="56.5" y="120.9" fill="#c8ffd2">+</tspan><tspan x="63.3" y="76.0" fill="#266534">O</tspan><tspan x="63.3" y="91.0" fill="#2c7a3b">/</tspan><tspan x="63.3" y="105.9" fill="#328f42">K</tspan><tspan x="63.3" y="120.9" fill="#39a449">#</tspan><tspan x="63.3" y="135.8" fill="#c8ffd2">G</tspan><tspan x="70.1" y="76.0" fill="#20502c">Y</tspan><tspan x="70.1" y="91.0" fill="#266534">F</tspan><tspan x="70.1" y="105.9" fill="#2c7a3b">X</tspan><tspan x="70.1" y="120.9" fill="#328f42">#</tspan><tspan x="70.1" y="135.8" fill="#39a449">S</tspan><tspan x="70.1" y="150.8" fill="#c8ffd2">C</tspan><tspan x="83.7" y="76.0" fill="#2c7a3b">N</tspan><tspan x="83.7" y="91.0" fill="#328f42">Z</tspan><tspan x="83.7" y="105.9" fill="#39a449">C</tspan><tspan x="83.7" y="120.9" fill="#c8ffd2">L</tspan><tspan x="97.4" y="76.0" fill="#2c7a3b">R</tspan><tspan x="97.4" y="91.0" fill="#328f42">F</tspan><tspan x="97.4" y="105.9" fill="#39a449">H</tspan><tspan x="97.4" y="120.9" fill="#c8ffd2">V</tspan><tspan x="104.2" y="76.0" fill="#266534">H</tspan><tspan x="104.2" y="91.0" fill="#2c7a3b">O</tspan><tspan x="104.2" y="105.9" fill="#328f42">G</tspan><tspan x="104.2" y="120.9" fill="#39a449">$</tspan><tspan x="104.2" y="135.8" fill="#c8ffd2">M</tspan><tspan x="124.7" y="76.0" fill="#266534">E</tspan><tspan x="124.7" y="91.0" fill="#2c7a3b">X</tspan><tspan x="124.7" y="105.9" fill="#328f42">&amp;</tspan><tspan x="124.7" y="120.9" fill="#39a449">I</tspan><tspan x="124.7" y="135.8" fill="#c8ffd2">M</tspan><tspan x="138.3" y="76.0" fill="#266534">I</tspan><tspan x="138.3" y="91.0" fill="#2c7a3b">Z</tspan><tspan x="138.3" y="105.9" fill="#328f42">*</tspan><tspan x="138.3" y="120.9" fill="#39a449">X</tspan><tspan x="138.3" y="135.8" fill="#c8ffd2">T</tspan><tspan x="151.9" y="76.0" fill="#2c7a3b">Y</tspan><tspan x="151.9" y="91.0" fill="#328f42">K</tspan><tspan x="151.9" y="105.9" fill="#39a449">U</tspan><tspan x="151.9" y="120.9" fill="#c8ffd2">S</tspan></text>
      <text font-size="11" opacity="0"><animate attributeName="opacity" calcMode="discrete" values="0;1;0" keyTimes="0.00000;0.68750;0.75000" begin="0s" dur="2.40s" repeatCount="indefinite"/><tspan x="42.8" y="76.0" fill="#13261e">D</tspan><tspan x="42.8" y="91.0" fill="#1a3b25">V</tspan><tspan x="42.8" y="105.9" fill="#20502c">1</tspan><tspan x="42.8" y="120.9" fill="#266534">T</tspan><tspan x="42.8" y="135.8" fill="#2c7a3b">/</tspan><tspan x="42.8" y="150.8" fill="#328f42">$</tspan><tspan x="42.8" y="165.8" fill="#39a449">#</tspan><tspan x="42.8" y="180.7" fill="#c8ffd2">1</tspan><tspan x="56.5" y="76.0" fill="#266534">W</tspan><tspan x="56.5" y="91.0" fill="#2c7a3b">T</tspan><tspan x="56.5" y="105.9" fill="#328f42">+</tspan><tspan x="56.5" y="120.9" fill="#39a449">Q</tspan><tspan x="56.5" y="135.8" fill="#c8ffd2">*</tspan><tspan x="63.3" y="76.0" fill="#20502c">C</tspan><tspan x="63.3" y="91.0" fill="#266534">F</tspan><tspan x="63.3" y="105.9" fill="#2c7a3b">M</tspan><tspan x="63.3" y="120.9" fill="#328f42">E</tspan><tspan x="63.3" y="135.8" fill="#39a449">D</tspan><tspan x="63.3" y="150.8" fill="#c8ffd2">O</tspan><tspan x="70.1" y="76.0" fill="#1a3b25">P</tspan><tspan x="70.1" y="91.0" fill="#20502c">A</tspan><tspan x="70.1" y="105.9" fill="#266534">J</tspan><tspan x="70.1" y="120.9" fill="#2c7a3b">P</tspan><tspan x="70.1" y="135.8" fill="#328f42">G</tspan><tspan x="70.1" y="150.8" fill="#39a449">Z</tspan><tspan x="70.1" y="165.8" fill="#c8ffd2">O</tspan><tspan x="83.7" y="76.0" fill="#266534">X</tspan><tspan x="83.7" y="91.0" fill="#2c7a3b">H</tspan><tspan x="83.7" y="105.9" fill="#328f42">-</tspan><tspan x="83.7" y="120.9" fill="#39a449">*</tspan><tspan x="83.7" y="135.8" fill="#c8ffd2">&lt;</tspan><tspan x="97.4" y="76.0" fill="#266534">&amp;</tspan><tspan x="97.4" y="91.0" fill="#2c7a3b">S</tspan><tspan x="97.4" y="105.9" fill="#328f42">D</tspan><tspan x="97.4" y="120.9" fill="#39a449">P</tspan><tspan x="97.4" y="135.8" fill="#c8ffd2">B</tspan><tspan x="104.2" y="76.0" fill="#20502c">J</tspan><tspan x="104.2" y="91.0" fill="#266534">Z</tspan><tspan x="104.2" y="105.9" fill="#2c7a3b">C</tspan><tspan x="104.2" y="120.9" fill="#328f42">P</tspan><tspan x="104.2" y="135.8" fill="#39a449">1</tspan><tspan x="104.2" y="150.8" fill="#c8ffd2">D</tspan><tspan x="111.0" y="76.0" fill="#c8ffd2">O</tspan><tspan x="117.8" y="76.0" fill="#c8ffd2">D</tspan><tspan x="124.7" y="76.0" fill="#20502c">M</tspan><tspan x="124.7" y="91.0" fill="#266534">C</tspan><tspan x="124.7" y="105.9" fill="#2c7a3b">O</tspan><tspan x="124.7" y="120.9" fill="#328f42">F</tspan><tspan x="124.7" y="135.8" fill="#39a449">$</tspan><tspan x="124.7" y="150.8" fill="#c8ffd2">0</tspan><tspan x="138.3" y="76.0" fill="#20502c">T</tspan><tspan x="138.3" y="91.0" fill="#266534">/</tspan><tspan x="138.3" y="105.9" fill="#2c7a3b">Y</tspan><tspan x="138.3" y="120.9" fill="#328f42">P</tspan><tspan x="138.3" y="135.8" fill="#39a449">G</tspan><tspan x="138.3" y="150.8" fill="#c8ffd2">A</tspan><tspan x="145.1" y="76.0" fill="#c8ffd2">+</tspan><tspan x="151.9" y="76.0" fill="#266534">N</tspan><tspan x="151.9" y="91.0" fill="#2c7a3b">F</tspan><tspan x="151.9" y="105.9" fill="#328f42">I</tspan><tspan x="151.9" y="120.9" fill="#39a449">O</tspan><tspan x="151.9" y="135.8" fill="#c8ffd2">B</tspan></text>
      <text font-size="11" opacity="0"><animate attributeName="opacity" calcMode="discrete" values="0;1;0" keyTimes="0.00000;0.75000;0.81250" begin="0s" dur="2.40s" repeatCount="indefinite"/><tspan x="49.6" y="76.0" fill="#c8ffd2">J</tspan><tspan x="56.5" y="76.0" fill="#20502c">K</tspan><tspan x="56.5" y="91.0" fill="#266534">R</tspan><tspan x="56.5" y="105.9" fill="#2c7a3b">R</tspan><tspan x="56.5" y="120.9" fill="#328f42">+</tspan><tspan x="56.5" y="135.8" fill="#39a449">L</tspan><tspan x="56.5" y="150.8" fill="#c8ffd2">Q</tspan><tspan x="63.3" y="76.0" fill="#1a3b25">#</tspan><tspan x="63.3" y="91.0" fill="#20502c">*</tspan><tspan x="63.3" y="105.9" fill="#266534">J</tspan><tspan x="63.3" y="120.9" fill="#2c7a3b">P</tspan><tspan x="63.3" y="135.8" fill="#328f42">U</tspan><tspan x="63.3" y="150.8" fill="#39a449">1</tspan><tspan x="63.3" y="165.8" fill="#c8ffd2">O</tspan><tspan x="70.1" y="76.0" fill="#13261e">A</tspan><tspan x="70.1" y="91.0" fill="#1a3b25">0</tspan><tspan x="70.1" y="105.9" fill="#20502c">1</tspan><tspan x="70.1" y="120.9" fill="#266534">*</tspan><tspan x="70.1" y="135.8" fill="#2c7a3b">/</tspan><tspan x="70.1" y="150.8" fill="#328f42">K</tspan><tspan x="70.1" y="165.8" fill="#39a449">*</tspan><tspan x="70.1" y="180.7" fill="#c8ffd2">%</tspan><tspan x="83.7" y="76.0" fill="#20502c">N</tspan><tspan x="83.7" y="91.0" fill="#266534">#</tspan><tspan x="83.7" y="105.9" fill="#2c7a3b">E</tspan><tspan x="83.7" y="120.9" fill="#328f42">Z</tspan><tspan x="83.7" y="135.8" fill="#39a449">&amp;</tspan><tspan x="83.7" y="150.8" fill="#c8ffd2">-</tspan><tspan x="97.4" y="76.0" fill="#20502c">X</tspan><tspan x="97.4" y="91.0" fill="#266534">*</tspan><tspan x="97.4" y="105.9" fill="#2c7a3b">R</tspan><tspan x="97.4" y="120.9" fill="#328f42">L</tspan><tspan x="97.4" y="135.8" fill="#39a449">M</tspan><tspan x="97.4" y="150.8" fill="#c8ffd2">T</tspan><tspan x="104.2" y="76.0" fill="#1a3b25">K</tspan><tspan x="104.2" y="91.0" fill="#20502c">G</tspan><tspan x="104.2" y="105.9" fill="#266534">X</tspan><tspan x="104.2" y="120.9" fill="#2c7a3b">U</tspan><tspan x="104.2" y="135.8" fill="#328f42">B</tspan><tspan x="104.2" y="150.8" fill="#39a449">G</tspan><tspan x="104.2" y="165.8" fill="#c8ffd2">0</tspan><tspan x="111.0" y="76.0" fill="#39a449">C</tspan><tspan x="111.0" y="91.0" fill="#c8ffd2">O</tspan><tspan x="117.8" y="76.0" fill="#39a449">Z</tspan><tspan x="117.8" y="91.0" fill="#c8ffd2">I</tspan><tspan x="124.7" y="76.0" fill="#1a3b25">B</tspan><tspan x="124.7" y="91.0" fill="#20502c">D</tspan><tspan x="124.7" y="105.9" fill="#266534">W</tspan><tspan x="124.7" y="120.9" fill="#2c7a3b">*</tspan><tspan x="124.7" y="135.8" fill="#328f42">Q</tspan><tspan x="124.7" y="150.8" fill="#39a449">N</tspan><tspan x="124.7" y="165.8" fill="#c8ffd2">Q</tspan><tspan x="138.3" y="76.0" fill="#1a3b25">A</tspan><tspan x="138.3" y="91.0" fill="#20502c">$</tspan><tspan x="138.3" y="105.9" fill="#266534">J</tspan><tspan x="138.3" y="120.9" fill="#2c7a3b">I</tspan><tspan x="138.3" y="135.8" fill="#328f42">P</tspan><tspan x="138.3" y="150.8" fill="#39a449">#</tspan><tspan x="138.3" y="165.8" fill="#c8ffd2">0</tspan><tspan x="145.1" y="76.0" fill="#39a449">O</tspan><tspan x="145.1" y="91.0" fill="#c8ffd2">V</tspan><tspan x="151.9" y="76.0" fill="#20502c">T</tspan><tspan x="151.9" y="91.0" fill="#266534">/</tspan><tspan x="151.9" y="105.9" fill="#2c7a3b">S</tspan><tspan x="151.9" y="120.9" fill="#328f42">N</tspan><tspan x="151.9" y="135.8" fill="#39a449">A</tspan><tspan x="151.9" y="150.8" fill="#c8ffd2">R</tspan></text>
      <text font-size="11" opacity="0"><animate attributeName="opacity" calcMode="discrete" values="0;1;0" keyTimes="0.00000;0.81250;0.87500" begin="0s" dur="2.40s" repeatCount="indefinite"/><tspan x="49.6" y="76.0" fill="#39a449">L</tspan><tspan x="49.6" y="91.0" fill="#c8ffd2">U</tspan><tspan x="56.5" y="76.0" fill="#1a3b25">J</tspan><tspan x="56.5" y="91.0" fill="#20502c">0</tspan><tspan x="56.5" y="105.9" fill="#266534">T</tspan><tspan x="56.5" y="120.9" fill="#2c7a3b">W</tspan><tspan x="56.5" y="135.8" fill="#328f42">D</tspan><tspan x="56.5" y="150.8" fill="#39a449">%</tspan><tspan x="56.5" y="165.8" fill="#c8ffd2">P</tspan><tspan x="63.3" y="76.0" fill="#13261e">*</tspan><tspan x="63.3" y="91.0" fill="#1a3b25">K</tspan><tspan x="63.3" y="105.9" fill="#20502c">N</tspan><tspan x="63.3" y="120.9" fill="#266534">*</tspan><tspan x="63.3" y="135.8" fill="#2c7a3b">0</tspan><tspan x="63.3" y="150.8" fill="#328f42">D</tspan><tspan x="63.3" y="165.8" fill="#39a449">O</tspan><tspan x="63.3" y="180.7" fill="#c8ffd2">D</tspan><tspan x="76.9" y="76.0" fill="#c8ffd2">H</tspan><tspan x="83.7" y="76.0" fill="#1a3b25">X</tspan><tspan x="83.7" y="91.0" fill="#20502c">&gt;</tspan><tspan x="83.7" y="105.9" fill="#266534">A</tspan><tspan x="83.7" y="120.9" fill="#2c7a3b">X</tspan><tspan x="83.7" y="135.8" fill="#328f42">1</tspan><tspan x="83.7" y="150.8" fill="#39a449">R</tspan><tspan x="83.7" y="165.8" fill="#c8ffd2">R</tspan><tspan x="97.4" y="76.0" fill="#1a3b25">M</tspan><tspan x="97.4" y="91.0" fill="#20502c">D</tspan><tspan x="97.4" y="105.9" fill="#266534">&gt;</tspan><tspan x="97.4" y="120.9" fill="#2c7a3b">+</tspan><tspan x="97.4" y="135.8" fill="#328f42">H</tspan><tspan x="97.4" y="150.8" fill="#39a449">W</tspan><tspan x="97.4" y="165.8" fill="#c8ffd2">S</tspan><tspan x="104.2" y="76.0" fill="#13261e">&amp;</tspan><tspan x="104.2" y="91.0" fill="#1a3b25">H</tspan><tspan x="104.2" y="105.9" fill="#20502c">Q</tspan><tspan x="104.2" y="120.9" fill="#266534">H</tspan><tspan x="104.2" y="135.8" fill="#2c7a3b">A</tspan><tspan x="104.2" y="150.8" fill="#328f42">*</tspan><tspan x="104.2" y="165.8" fill="#39a449">Z</tspan><tspan x="104.2" y="180.7" fill="#c8ffd2">*</tspan><tspan x="111.0" y="76.0" fill="#328f42">G</tspan><tspan x="111.0" y="91.0" fill="#39a449">+</tspan><tspan x="111.0" y="105.9" fill="#c8ffd2">*</tspan><tspan x="117.8" y="76.0" fill="#328f42">&lt;</tspan><tspan x="117.8" y="91.0" fill="#39a449">1</tspan><tspan x="117.8" y="105.9" fill="#c8ffd2">&gt;</tspan><tspan x="124.7" y="76.0" fill="#13261e">M</tspan><tspan x="124.7" y="91.0" fill="#1a3b25">D</tspan><tspan x="124.7" y="105.9" fill="#20502c">1</tspan><tspan x="124.7" y="120.9" fill="#266534">A</tspan><tspan x="124.7" y="135.8" fill="#2c7a3b">G</tspan><tspan x="124.7" y="150.8" fill="#328f42">V</tspan><tspan x="124.7" y="165.8" fill="#39a449">E</tspan><tspan x="124.7" y="180.7" fill="#c8ffd2">W</tspan><tspan x="138.3" y="76.0" fill="#13261e">#</tspan><tspan x="138.3" y="91.0" fill="#1a3b25">/</tspan><tspan x="138.3" y="105.9" fill="#20502c">B</tspan><tspan x="138.3" y="120.9" fill="#266534">1</tspan><tspan x="138.3" y="135.8" fill="#2c7a3b">-</tspan><tspan x="138.3" y="150.8" fill="#328f42">N</tspan><tspan x="138.3" y="165.8" fill="#39a449">&amp;</tspan><tspan x="138.3" y="180.7" fill="#c8ffd2">O</tspan><tspan x="145.1" y="76.0" fill="#328f42">0</tspan><tspan x="145.1" y="91.0" fill="#39a449">$</tspan><tspan x="145.1" y="105.9" fill="#c8ffd2">C</tspan><tspan x="151.9" y="76.0" fill="#1a3b25">*</tspan><tspan x="151.9" y="91.0" fill="#20502c">-</tspan><tspan x="151.9" y="105.9" fill="#266534">D</tspan><tspan x="151.9" y="120.9" fill="#2c7a3b">+</tspan><tspan x="151.9" y="135.8" fill="#328f42">C</tspan><tspan x="151.9" y="150.8" fill="#39a449">%</tspan><tspan x="151.9" y="165.8" fill="#c8ffd2">O</tspan></text>
      <text font-size="11" opacity="0"><animate attributeName="opacity" calcMode="discrete" values="0;1;0" keyTimes="0.00000;0.87500;0.93750" begin="0s" dur="2.40s" repeatCount="indefinite"/><tspan x="36.0" y="76.0" fill="#c8ffd2">C</tspan><tspan x="49.6" y="76.0" fill="#328f42">O</tspan><tspan x="49.6" y="91.0" fill="#39a449">N</tspan><tspan x="49.6" y="105.9" fill="#c8ffd2">L</tspan><tspan x="56.5" y="76.0" fill="#13261e">M</tspan><tspan x="56.5" y="91.0" fill="#1a3b25">$</tspan><tspan x="56.5" y="105.9" fill="#20502c">&amp;</tspan><tspan x="56.5" y="120.9" fill="#266534">W</tspan><tspan x="56.5" y="135.8" fill="#2c7a3b">C</tspan><tspan x="56.5" y="150.8" fill="#328f42">%</tspan><tspan x="56.5" y="165.8" fill="#39a449">Q</tspan><tspan x="56.5" y="180.7" fill="#c8ffd2">A</tspan><tspan x="76.9" y="76.0" fill="#39a449">K</tspan><tspan x="76.9" y="91.0" fill="#c8ffd2">C</tspan><tspan x="83.7" y="76.0" fill="#13261e">H</tspan><tspan x="83.7" y="91.0" fill="#1a3b25">T</tspan><tspan x="83.7" y="105.9" fill="#20502c">O</tspan><tspan x="83.7" y="120.9" fill="#266534">R</tspan><tspan x="83.7" y="135.8" fill="#2c7a3b">&lt;</tspan><tspan x="83.7" y="150.8" fill="#328f42">G</tspan><tspan x="83.7" y="165.8" fill="#39a449">0</tspan><tspan x="83.7" y="180.7" fill="#c8ffd2">%</tspan><tspan x="97.4" y="76.0" fill="#13261e">B</tspan><tspan x="97.4" y="91.0" fill="#1a3b25">&amp;</tspan><tspan x="97.4" y="105.9" fill="#20502c">P</tspan><tspan x="97.4" y="120.9" fill="#266534">E</tspan><tspan x="97.4" y="135.8" fill="#2c7a3b">L</tspan><tspan x="97.4" y="150.8" fill="#328f42">&amp;</tspan><tspan x="97.4" y="165.8" fill="#39a449">Q</tspan><tspan x="97.4" y="180.7" fill="#c8ffd2">+</tspan><tspan x="111.0" y="76.0" fill="#2c7a3b">Q</tspan><tspan x="111.0" y="91.0" fill="#328f42">$</tspan><tspan x="111.0" y="105.9" fill="#39a449">$</tspan><tspan x="111.0" y="120.9" fill="#c8ffd2">$</tspan><tspan x="117.8" y="76.0" fill="#2c7a3b">F</tspan><tspan x="117.8" y="91.0" fill="#328f42">/</tspan><tspan x="117.8" y="105.9" fill="#39a449">K</tspan><tspan x="117.8" y="120.9" fill="#c8ffd2">R</tspan><tspan x="145.1" y="76.0" fill="#2c7a3b">D</tspan><tspan x="145.1" y="91.0" fill="#328f42">%</tspan><tspan x="145.1" y="105.9" fill="#39a449">1</tspan><tspan x="145.1" y="120.9" fill="#c8ffd2">Q</tspan><tspan x="151.9" y="76.0" fill="#13261e">$</tspan><tspan x="151.9" y="91.0" fill="#1a3b25">C</tspan><tspan x="151.9" y="105.9" fill="#20502c">*</tspan><tspan x="151.9" y="120.9" fill="#266534">#</tspan><tspan x="151.9" y="135.8" fill="#2c7a3b">P</tspan><tspan x="151.9" y="150.8" fill="#328f42">W</tspan><tspan x="151.9" y="165.8" fill="#39a449">L</tspan><tspan x="151.9" y="180.7" fill="#c8ffd2">L</tspan></text>
      <text font-size="11" opacity="0"><animate attributeName="opacity" calcMode="discrete" values="0;1;0" keyTimes="0.00000;0.93750;1.00000" begin="0s" dur="2.40s" repeatCount="indefinite"/><tspan x="36.0" y="76.0" fill="#39a449">C</tspan><tspan x="36.0" y="91.0" fill="#c8ffd2">&gt;</tspan><tspan x="49.6" y="76.0" fill="#2c7a3b">D</tspan><tspan x="49.6" y="91.0" fill="#328f42">H</tspan><tspan x="49.6" y="105.9" fill="#39a449">+</tspan><tspan x="49.6" y="120.9" fill="#c8ffd2">O</tspan><tspan x="76.9" y="76.0" fill="#328f42">V</tspan><tspan x="76.9" y="91.0" fill="#39a449">G</tspan><tspan x="76.9" y="105.9" fill="#c8ffd2">*</tspan><tspan x="111.0" y="76.0" fill="#266534">P</tspan><tspan x="111.0" y="91.0" fill="#2c7a3b">F</tspan><tspan x="111.0" y="105.9" fill="#328f42">V</tspan><tspan x="111.0" y="120.9" fill="#39a449">M</tspan><tspan x="111.0" y="135.8" fill="#c8ffd2">&amp;</tspan><tspan x="117.8" y="76.0" fill="#266534">&amp;</tspan><tspan x="117.8" y="91.0" fill="#2c7a3b">X</tspan><tspan x="117.8" y="105.9" fill="#328f42">1</tspan><tspan x="117.8" y="120.9" fill="#39a449">I</tspan><tspan x="117.8" y="135.8" fill="#c8ffd2">0</tspan><tspan x="145.1" y="76.0" fill="#266534">&amp;</tspan><tspan x="145.1" y="91.0" fill="#2c7a3b">#</tspan><tspan x="145.1" y="105.9" fill="#328f42">X</tspan><tspan x="145.1" y="120.9" fill="#39a449">R</tspan><tspan x="145.1" y="135.8" fill="#c8ffd2">H</tspan></text>
    </g>

    <clipPath id="clipL1"><rect x="258" y="63" width="0" height="18"><animate attributeName="width" from="0" to="170" begin="0.3s" dur="0.6s" fill="freeze"/></rect></clipPath>
    <clipPath id="clipL2"><rect x="258" y="85" width="0" height="18"><animate attributeName="width" from="0" to="250" begin="1.0s" dur="0.9s" fill="freeze"/></rect></clipPath>
    <clipPath id="clipL3"><rect x="258" y="117" width="0" height="18"><animate attributeName="width" from="0" to="217" begin="2.2s" dur="0.8s" fill="freeze"/></rect></clipPath>
    <clipPath id="clipL4"><rect x="258" y="139" width="0" height="18"><animate attributeName="width" from="0" to="319" begin="3.2s" dur="1.1s" fill="freeze"/></rect></clipPath>
    <clipPath id="clipL5"><rect x="258" y="171" width="0" height="18"><animate attributeName="width" from="0" to="217" begin="4.6s" dur="0.8s" fill="freeze"/></rect></clipPath>
    <clipPath id="clipL6"><rect x="258" y="193" width="0" height="18"><animate attributeName="width" from="0" to="349" begin="5.6s" dur="1.3s" fill="freeze"/></rect></clipPath>

    <g clip-path="url(#clipL1)" font-size="12">
      <text x="260" y="76"><tspan fill="#6e7681">adrian@dev:~$ </tspan><tspan fill="#c9d1d9">whoami</tspan></text>
    </g>
    <g clip-path="url(#clipL2)" font-size="12">
      <text x="260" y="98" fill="#58A6FF">junior software / ai developer</text>
    </g>

    <g clip-path="url(#clipL3)" font-size="12">
      <text x="260" y="130"><tspan fill="#6e7681">adrian@dev:~$ </tspan><tspan fill="#c9d1d9">ls ./projects</tspan></text>
    </g>
    <g clip-path="url(#clipL4)" font-size="12">
      <text x="260" y="152" fill="#58A6FF">ipa-builder  auto_applyer  quant-research</text>
    </g>

    <g clip-path="url(#clipL5)" font-size="12">
      <text x="260" y="184"><tspan fill="#6e7681">adrian@dev:~$ </tspan><tspan fill="#c9d1d9">cat motto.txt</tspan></text>
    </g>
    <g clip-path="url(#clipL6)" font-size="12">
      <text x="260" y="206" fill="#58A6FF">ship it -&gt; see what breaks -&gt; fix it for real</text>
    </g>

    <rect x="612" y="195" width="8" height="14" fill="#58A6FF" opacity="0">
      <animate attributeName="opacity" values="0;0;1;1;0;0" keyTimes="0;0.001;0.02;0.5;0.52;1" begin="6.9s" dur="1s" repeatCount="indefinite"/>
    </rect>
  </g>
</svg>
